<svg width="20" height="20" viewBox="0 0 20 20" fill="none" xmlns="http://www.w3.org/2000/svg">
<path d="M10.0001 6.52521C8.2798 6.52521 6.87589 7.92911 6.87589 9.64943C6.87589 11.3697 8.2798 12.7736 10.0001 12.7736C11.7204 12.7736 13.1243 11.3697 13.1243 9.64943C13.1243 7.92911 11.7204 6.52521 10.0001 6.52521ZM19.3704 9.64943C19.3704 8.35568 19.3821 7.07365 19.3095 5.78224C19.2368 4.28224 18.8946 2.95099 17.7978 1.85412C16.6985 0.754896 15.3696 0.415053 13.8696 0.342396C12.5759 0.26974 11.2939 0.281459 10.0025 0.281459C8.7087 0.281459 7.42667 0.26974 6.13527 0.342396C4.63527 0.415053 3.30402 0.75724 2.20714 1.85412C1.10792 2.95333 0.76808 4.28224 0.695424 5.78224C0.622767 7.07599 0.634486 8.35802 0.634486 9.64943C0.634486 10.9408 0.622767 12.2252 0.695424 13.5166C0.76808 15.0166 1.11027 16.3479 2.20714 17.4447C3.30636 18.544 4.63527 18.8838 6.13527 18.9565C7.42902 19.0291 8.71105 19.0174 10.0025 19.0174C11.2962 19.0174 12.5782 19.0291 13.8696 18.9565C15.3696 18.8838 16.7009 18.5416 17.7978 17.4447C18.897 16.3455 19.2368 15.0166 19.3095 13.5166C19.3845 12.2252 19.3704 10.9432 19.3704 9.64943ZM10.0001 14.4565C7.33995 14.4565 5.19308 12.3096 5.19308 9.64943C5.19308 6.98927 7.33995 4.8424 10.0001 4.8424C12.6603 4.8424 14.8071 6.98927 14.8071 9.64943C14.8071 12.3096 12.6603 14.4565 10.0001 14.4565ZM15.004 5.76818C14.3829 5.76818 13.8814 5.26661 13.8814 4.64552C13.8814 4.02443 14.3829 3.52287 15.004 3.52287C15.6251 3.52287 16.1267 4.02443 16.1267 4.64552C16.1269 4.793 16.0979 4.93907 16.0416 5.07536C15.9852 5.21165 15.9026 5.33549 15.7983 5.43977C15.694 5.54406 15.5701 5.62674 15.4339 5.6831C15.2976 5.73945 15.1515 5.76836 15.004 5.76818Z" fill="black"/>
</svg>
