<svg width="20" height="17" viewBox="0 0 20 17" fill="none" xmlns="http://www.w3.org/2000/svg">
<path d="M19.7499 2.60958C19.0327 2.91896 18.2522 3.14161 17.4483 3.22833C18.283 2.73248 18.908 1.94911 19.2061 1.0252C18.4229 1.49112 17.5649 1.81782 16.6702 1.99083C16.2963 1.59105 15.844 1.27256 15.3415 1.05522C14.8391 0.837881 14.2973 0.72634 13.7499 0.727549C11.5351 0.727549 9.75381 2.52286 9.75381 4.72599C9.75381 5.03536 9.79131 5.34474 9.85225 5.64239C6.53584 5.46896 3.57803 3.88458 1.61162 1.4588C1.25332 2.07079 1.06556 2.76761 1.06787 3.47677C1.06787 4.86427 1.77334 6.08771 2.84912 6.80724C2.21515 6.78227 1.59602 6.60801 1.04209 6.29864V6.34786C1.04209 8.29083 2.41553 9.90099 4.246 10.2713C3.90231 10.3606 3.54875 10.4062 3.19365 10.4072C2.9335 10.4072 2.6874 10.3815 2.43896 10.3463C2.94521 11.9307 4.41943 13.0815 6.1749 13.119C4.80146 14.1947 3.08115 14.8275 1.21318 14.8275C0.878027 14.8275 0.568652 14.8158 0.247559 14.7783C2.01943 15.915 4.12178 16.5713 6.38584 16.5713C13.7358 16.5713 17.7577 10.4822 17.7577 5.19708C17.7577 5.02364 17.7577 4.8502 17.746 4.67677C18.5241 4.10724 19.2062 3.40177 19.7499 2.60958Z" fill="black"/>
</svg>
