<svg width="21" height="15" viewBox="0 0 21 15" fill="none" xmlns="http://www.w3.org/2000/svg">
<path d="M20.5928 2.85242C20.4789 2.42982 20.2563 2.04443 19.9472 1.73459C19.6381 1.42475 19.2532 1.20128 18.8308 1.08642C17.2648 0.656421 10.9998 0.649422 10.9998 0.649422C10.9998 0.649422 4.73584 0.642421 3.16884 1.05342C2.74677 1.17357 2.36266 1.4002 2.05341 1.71156C1.74415 2.02291 1.52013 2.40854 1.40284 2.83142C0.989841 4.39742 0.985841 7.64542 0.985841 7.64542C0.985841 7.64542 0.981841 10.9094 1.39184 12.4594C1.62184 13.3164 2.29684 13.9934 3.15484 14.2244C4.73684 14.6544 10.9848 14.6614 10.9848 14.6614C10.9848 14.6614 17.2498 14.6684 18.8158 14.2584C19.2383 14.1438 19.6236 13.9208 19.9335 13.6116C20.2434 13.3024 20.4672 12.9177 20.5828 12.4954C20.9968 10.9304 20.9998 7.68342 20.9998 7.68342C20.9998 7.68342 21.0198 4.41842 20.5928 2.85242ZM8.99584 10.6544L9.00084 4.65442L14.2078 7.65942L8.99584 10.6544Z" fill="black"/>
</svg>
